<?xml version="1.0" encoding="UTF-8"?><svg xmlns="http://www.w3.org/2000/svg" xmlns:xlink="http://www.w3.org/1999/xlink" stroke-dasharray="none" shape-rendering="auto" font-family="'Dialog'" text-rendering="auto" width="110.0px" fill-opacity="1" contentScriptType="text/ecmascript" color-rendering="auto" color-interpolation="auto" preserveAspectRatio="xMidYMid meet" font-size="12px" fill="black" stroke="black" image-rendering="auto" stroke-miterlimit="10" zoomAndPan="magnify" version="1.0" stroke-linecap="square" stroke-linejoin="miter" contentStyleType="text/css" font-style="normal" stroke-width="1" height="70.0px" stroke-dashoffset="0" font-weight="normal" stroke-opacity="1"><!--Generated by the Batik Graphics2D SVG Generator--><defs id="genericDefs"/><g><defs id="defs1"><clipPath clipPathUnits="userSpaceOnUse" id="clipPath1"><path d="M-4 -4 L104 -4 L104 64 L-4 64 L-4 -4 Z"/></clipPath><clipPath clipPathUnits="userSpaceOnUse" id="clipPath2"><path d="M-10 -10 L98 -10 L98 58 L-10 58 L-10 -10 Z"/></clipPath></defs><g fill="rgb(255,255,255)" text-rendering="optimizeLegibility" fill-opacity="0" stroke-opacity="0" stroke="rgb(255,255,255)"><rect x="0" width="108" height="68" y="0" stroke="none"/></g><g fill="rgb(250,250,250)" text-rendering="optimizeLegibility" transform="matrix(1,0,0,1,4,4)" stroke="rgb(250,250,250)"><rect x="0" y="0" clip-path="url(#clipPath1)" width="100" rx="6" ry="6" height="60" stroke="none"/></g><g fill="rgb(0,0,139)" text-rendering="optimizeLegibility" stroke-width="3" transform="matrix(1,0,0,1,4,4)" stroke-linecap="butt" stroke="rgb(0,0,139)"><rect x="0" y="0" clip-path="url(#clipPath1)" fill="none" width="100" rx="6" ry="6" height="60"/></g><g text-rendering="optimizeLegibility" transform="matrix(1,0,0,1,10,10)" stroke-linejoin="round" stroke-linecap="round"><path fill="none" d="M0 4.29 Q0.555 2.625 2.205 2.145 L8.76 2.145 Q9.03 3.375 6.765 4.29 L3.975 4.29 L14.25 4.29 Q15 5.37 14.25 6.435 L7.08 6.435 L13.725 6.435 Q14.475 7.5 13.725 8.565 L7.965 8.565 L13.185 8.565 Q13.935 9.63 13.185 10.71 L7.53 10.71 L11.94 10.71 Q12.705 11.79 11.94 12.855 L1.32 12.855 Q0.33 12.495 0 11.385 Z" clip-path="url(#clipPath2)"/></g></g></svg>