<?xml version="1.0" encoding="UTF-8"?><svg xmlns="http://www.w3.org/2000/svg" xmlns:xlink="http://www.w3.org/1999/xlink" stroke-dasharray="none" shape-rendering="auto" font-family="'Dialog'" text-rendering="auto" width="110.0px" fill-opacity="1" contentScriptType="text/ecmascript" color-rendering="auto" color-interpolation="auto" preserveAspectRatio="xMidYMid meet" font-size="12px" fill="black" stroke="black" image-rendering="auto" stroke-miterlimit="10" zoomAndPan="magnify" version="1.0" stroke-linecap="square" stroke-linejoin="miter" contentStyleType="text/css" font-style="normal" stroke-width="1" height="70.0px" stroke-dashoffset="0" font-weight="normal" stroke-opacity="1"><!--Generated by the Batik Graphics2D SVG Generator--><defs id="genericDefs"/><g><defs id="defs1"><clipPath clipPathUnits="userSpaceOnUse" id="clipPath1"><path d="M-4 -4 L104 -4 L104 64 L-4 64 L-4 -4 Z"/></clipPath><clipPath clipPathUnits="userSpaceOnUse" id="clipPath2"><path d="M-10 -10 L98 -10 L98 58 L-10 58 L-10 -10 Z"/></clipPath></defs><g fill="rgb(255,255,255)" text-rendering="optimizeLegibility" fill-opacity="0" stroke-opacity="0" stroke="rgb(255,255,255)"><rect x="0" width="108" height="68" y="0" stroke="none"/></g><g fill="rgb(250,250,250)" text-rendering="optimizeLegibility" transform="matrix(1,0,0,1,4,4)" stroke="rgb(250,250,250)"><rect x="0" y="0" clip-path="url(#clipPath1)" width="100" rx="6" ry="6" height="60" stroke="none"/><rect stroke-linecap="butt" x="0" y="0" clip-path="url(#clipPath1)" fill="none" width="100" rx="6" ry="6" height="60" stroke="rgb(0,0,204)"/><path fill="silver" d="M15 15 L0 15 L0 10.515 Q1.95 7.5 4.74 6.645 L5.1241 5.7359 C3.812 4.4237 3.812 2.2963 5.1241 0.9841 C6.4363 -0.328 8.5637 -0.328 9.8759 0.9841 C11.188 2.2963 11.188 4.4237 9.8759 5.7359 L10.26 6.645 Q13.05 7.5 15 10.515 Z" clip-path="url(#clipPath2)" transform="matrix(1,0,0,1,6,6)" stroke="none"/></g><g text-rendering="optimizeLegibility" transform="matrix(1,0,0,1,10,10)" stroke-linejoin="round" stroke-linecap="round"><path fill="none" d="M15 15 L0 15 L0 10.515 Q1.95 7.5 4.74 6.645 L5.1241 5.7359 C3.812 4.4237 3.812 2.2963 5.1241 0.9841 C6.4363 -0.328 8.5637 -0.328 9.8759 0.9841 C11.188 2.2963 11.188 4.4237 9.8759 5.7359 L10.26 6.645 Q13.05 7.5 15 10.515 Z" clip-path="url(#clipPath2)"/></g><g text-rendering="optimizeLegibility" transform="matrix(1,0,0,1,10,10)"><path d="M4.305 3.435 C7.2 0.795 7.8 3.795 10.695 2.055 C10.4334 0.8845 8.6645 -0.2975 6.8445 0.0646 C5.3508 0.3617 4.14 1.8371 4.14 3.36 Z" stroke="none" clip-path="url(#clipPath2)"/><path fill="none" d="M4.305 3.435 C7.2 0.795 7.8 3.795 10.695 2.055 C10.4334 0.8845 8.6645 -0.2975 6.8445 0.0646 C5.3508 0.3617 4.14 1.8371 4.14 3.36 Z" clip-path="url(#clipPath2)" stroke-linecap="round" stroke-linejoin="round"/></g><g text-rendering="optimizeLegibility" transform="matrix(1,0,0,1,10,10)" stroke-linejoin="round" stroke-linecap="round"><path fill="none" d="M2.85 15 L2.85 12.24 M12.15 15 L12.15 12.24 M4.74 6.645 C4.5 10.08 10.5 10.08 10.26 6.645" clip-path="url(#clipPath2)"/></g></g></svg>