<?xml version="1.0" encoding="UTF-8"?><svg xmlns="http://www.w3.org/2000/svg" xmlns:xlink="http://www.w3.org/1999/xlink" stroke-dasharray="none" shape-rendering="auto" font-family="'Dialog'" text-rendering="auto" width="110.0px" fill-opacity="1" contentScriptType="text/ecmascript" color-rendering="auto" color-interpolation="auto" preserveAspectRatio="xMidYMid meet" font-size="12px" fill="black" stroke="black" image-rendering="auto" stroke-miterlimit="10" zoomAndPan="magnify" version="1.0" stroke-linecap="square" stroke-linejoin="miter" contentStyleType="text/css" font-style="normal" stroke-width="1" height="70.0px" stroke-dashoffset="0" font-weight="normal" stroke-opacity="1"><!--Generated by the Batik Graphics2D SVG Generator--><defs id="genericDefs"/><g><defs id="defs1"><clipPath clipPathUnits="userSpaceOnUse" id="clipPath1"><path d="M-4 -4 L104 -4 L104 64 L-4 64 L-4 -4 Z"/></clipPath><clipPath clipPathUnits="userSpaceOnUse" id="clipPath2"><path d="M-10 -10 L98 -10 L98 58 L-10 58 L-10 -10 Z"/></clipPath></defs><g fill="rgb(255,255,255)" text-rendering="optimizeLegibility" fill-opacity="0" stroke-opacity="0" stroke="rgb(255,255,255)"><rect x="0" width="108" height="68" y="0" stroke="none"/></g><g fill="rgb(250,250,250)" text-rendering="optimizeLegibility" transform="matrix(1,0,0,1,4,4)" stroke="rgb(250,250,250)"><rect x="0" y="0" clip-path="url(#clipPath1)" width="100" rx="6" ry="6" height="60" stroke="none"/><rect stroke-linecap="butt" x="0" y="0" clip-path="url(#clipPath1)" fill="none" width="100" rx="6" ry="6" height="60" stroke="rgb(0,0,204)"/></g><g text-rendering="optimizeLegibility" transform="matrix(1,0,0,1,10,10)" stroke-linejoin="round" stroke-linecap="round"><path fill="none" d="M15 0 C5.5125 3.75 20.5125 11.25 11.025 15 L0 15 C9.4875 11.25 -5.5125 3.75 3.975 0 ZM2.9175 3 L9.5325 3 M3.5175 6 L10.1325 6 M4.8675 9 L11.4825 9 M5.4675 12 L12.0825 12" clip-path="url(#clipPath2)"/></g></g></svg>