<?xml version="1.0" encoding="UTF-8"?><svg xmlns="http://www.w3.org/2000/svg" xmlns:xlink="http://www.w3.org/1999/xlink" stroke-dasharray="none" shape-rendering="auto" font-family="'Dialog'" text-rendering="auto" width="110.0px" fill-opacity="1" contentScriptType="text/ecmascript" color-rendering="auto" color-interpolation="auto" preserveAspectRatio="xMidYMid meet" font-size="12px" fill="black" stroke="black" image-rendering="auto" stroke-miterlimit="10" zoomAndPan="magnify" version="1.0" stroke-linecap="square" stroke-linejoin="miter" contentStyleType="text/css" font-style="normal" stroke-width="1" height="70.0px" stroke-dashoffset="0" font-weight="normal" stroke-opacity="1"><!--Generated by the Batik Graphics2D SVG Generator--><defs id="genericDefs"/><g><defs id="defs1"><clipPath clipPathUnits="userSpaceOnUse" id="clipPath1"><path d="M-4 -4 L104 -4 L104 64 L-4 64 L-4 -4 Z"/></clipPath><clipPath clipPathUnits="userSpaceOnUse" id="clipPath2"><path d="M-10 -10 L98 -10 L98 58 L-10 58 L-10 -10 Z"/></clipPath></defs><g fill="rgb(255,255,255)" text-rendering="optimizeLegibility" fill-opacity="0" stroke-opacity="0" stroke="rgb(255,255,255)"><rect x="0" width="108" height="68" y="0" stroke="none"/></g><g fill="rgb(250,250,250)" text-rendering="optimizeLegibility" transform="matrix(1,0,0,1,4,4)" stroke="rgb(250,250,250)"><rect x="0" y="0" clip-path="url(#clipPath1)" width="100" rx="6" ry="6" height="60" stroke="none"/><rect stroke-linecap="butt" x="0" y="0" clip-path="url(#clipPath1)" fill="none" width="100" rx="6" ry="6" height="60" stroke="rgb(0,0,204)"/><rect x="2" y="2" clip-path="url(#clipPath1)" width="96" rx="4" ry="4" height="56" stroke="none"/><rect stroke-linecap="butt" x="2" y="2" clip-path="url(#clipPath1)" fill="none" width="96" rx="4" ry="4" height="56" stroke="rgb(0,0,204)"/></g><g fill="gray" text-rendering="optimizeLegibility" transform="matrix(1,0,0,1,10,10)" stroke="gray"><path d="M11.9487 5.2168 C12.0056 5.6494 12.0056 6.3506 11.9487 6.7832 L10.1193 6.8194 C10.0293 7.2719 9.7485 7.9498 9.4922 8.3334 L10.7601 9.6526 C10.4945 9.9987 9.9987 10.4945 9.6526 10.7601 L8.3334 9.4922 C7.9498 9.7485 7.2719 10.0293 6.8194 10.1193 L6.7832 11.9487 C6.3506 12.0056 5.6494 12.0056 5.2168 11.9487 L5.1806 10.1193 C4.7281 10.0293 4.0502 9.7485 3.6666 9.4922 L2.3474 10.7601 C2.0013 10.4945 1.5055 9.9987 1.2399 9.6526 L2.5078 8.3334 C2.2515 7.9498 1.9707 7.2719 1.8807 6.8194 L0.0513 6.7832 C-0.0056 6.3506 -0.0056 5.6494 0.0513 5.2168 L1.8807 5.1806 C1.9707 4.7281 2.2515 4.0502 2.5078 3.6666 L1.2399 2.3474 C1.5055 2.0013 2.0013 1.5055 2.3474 1.2399 L3.6666 2.5078 C4.0502 2.2515 4.7281 1.9707 5.1806 1.8807 L5.2168 0.0513 C5.6494 -0.0056 6.3506 -0.0056 6.7832 0.0513 L6.8194 1.8807 C7.2719 1.9707 7.9498 2.2515 8.3334 2.5078 L9.6526 1.2399 C9.9987 1.5055 10.4945 2.0013 10.7601 2.3474 L9.4922 3.6666 C9.7485 4.0502 10.0293 4.7281 10.1193 5.1806 L11.9487 5.2168 Z" stroke="none" clip-path="url(#clipPath2)"/></g><g text-rendering="optimizeLegibility" stroke-width="0.3" transform="matrix(1,0,0,1,10,10)" stroke-linecap="butt"><path fill="none" d="M11.9487 5.2168 C12.0056 5.6494 12.0056 6.3506 11.9487 6.7832 L10.1193 6.8194 C10.0293 7.2719 9.7485 7.9498 9.4922 8.3334 L10.7601 9.6526 C10.4945 9.9987 9.9987 10.4945 9.6526 10.7601 L8.3334 9.4922 C7.9498 9.7485 7.2719 10.0293 6.8194 10.1193 L6.7832 11.9487 C6.3506 12.0056 5.6494 12.0056 5.2168 11.9487 L5.1806 10.1193 C4.7281 10.0293 4.0502 9.7485 3.6666 9.4922 L2.3474 10.7601 C2.0013 10.4945 1.5055 9.9987 1.2399 9.6526 L2.5078 8.3334 C2.2515 7.9498 1.9707 7.2719 1.8807 6.8194 L0.0513 6.7832 C-0.0056 6.3506 -0.0056 5.6494 0.0513 5.2168 L1.8807 5.1806 C1.9707 4.7281 2.2515 4.0502 2.5078 3.6666 L1.2399 2.3474 C1.5055 2.0013 2.0013 1.5055 2.3474 1.2399 L3.6666 2.5078 C4.0502 2.2515 4.7281 1.9707 5.1806 1.8807 L5.2168 0.0513 C5.6494 -0.0056 6.3506 -0.0056 6.7832 0.0513 L6.8194 1.8807 C7.2719 1.9707 7.9498 2.2515 8.3334 2.5078 L9.6526 1.2399 C9.9987 1.5055 10.4945 2.0013 10.7601 2.3474 L9.4922 3.6666 C9.7485 4.0502 10.0293 4.7281 10.1193 5.1806 L11.9487 5.2168 Z" clip-path="url(#clipPath2)"/></g><g fill="silver" text-rendering="optimizeLegibility" transform="matrix(1,0,0,1,10,10)" stroke="silver"><path d="M8.3795 5.6867 C8.4022 5.8597 8.4022 6.1403 8.3795 6.3133 L7.6477 6.3278 C7.6117 6.5088 7.4994 6.7799 7.3969 6.9334 L7.904 7.461 C7.7978 7.5995 7.5995 7.7978 7.461 7.904 L6.9334 7.3969 C6.7799 7.4994 6.5088 7.6117 6.3278 7.6477 L6.3133 8.3795 C6.1403 8.4022 5.8597 8.4022 5.6867 8.3795 L5.6722 7.6477 C5.4912 7.6117 5.2201 7.4994 5.0666 7.3969 L4.539 7.904 C4.4005 7.7978 4.2022 7.5995 4.096 7.461 L4.6031 6.9334 C4.5006 6.7799 4.3883 6.5088 4.3523 6.3278 L3.6205 6.3133 C3.5978 6.1403 3.5978 5.8597 3.6205 5.6867 L4.3523 5.6722 C4.3883 5.4912 4.5006 5.2201 4.6031 5.0666 L4.096 4.539 C4.2022 4.4005 4.4005 4.2022 4.539 4.096 L5.0666 4.6031 C5.2201 4.5006 5.4912 4.3883 5.6722 4.3523 L5.6867 3.6205 C5.8597 3.5978 6.1403 3.5978 6.3133 3.6205 L6.3278 4.3523 C6.5088 4.3883 6.7799 4.5006 6.9334 4.6031 L7.461 4.096 C7.5995 4.2022 7.7978 4.4005 7.904 4.539 L7.3969 5.0666 C7.4994 5.2201 7.6117 5.4912 7.6477 5.6722 L8.3795 5.6867 Z" stroke="none" clip-path="url(#clipPath2)"/></g><g text-rendering="optimizeLegibility" stroke-width="0.3" transform="matrix(1,0,0,1,10,10)" stroke-linecap="butt"><path fill="none" d="M8.3795 5.6867 C8.4022 5.8597 8.4022 6.1403 8.3795 6.3133 L7.6477 6.3278 C7.6117 6.5088 7.4994 6.7799 7.3969 6.9334 L7.904 7.461 C7.7978 7.5995 7.5995 7.7978 7.461 7.904 L6.9334 7.3969 C6.7799 7.4994 6.5088 7.6117 6.3278 7.6477 L6.3133 8.3795 C6.1403 8.4022 5.8597 8.4022 5.6867 8.3795 L5.6722 7.6477 C5.4912 7.6117 5.2201 7.4994 5.0666 7.3969 L4.539 7.904 C4.4005 7.7978 4.2022 7.5995 4.096 7.461 L4.6031 6.9334 C4.5006 6.7799 4.3883 6.5088 4.3523 6.3278 L3.6205 6.3133 C3.5978 6.1403 3.5978 5.8597 3.6205 5.6867 L4.3523 5.6722 C4.3883 5.4912 4.5006 5.2201 4.6031 5.0666 L4.096 4.539 C4.2022 4.4005 4.4005 4.2022 4.539 4.096 L5.0666 4.6031 C5.2201 4.5006 5.4912 4.3883 5.6722 4.3523 L5.6867 3.6205 C5.8597 3.5978 6.1403 3.5978 6.3133 3.6205 L6.3278 4.3523 C6.5088 4.3883 6.7799 4.5006 6.9334 4.6031 L7.461 4.096 C7.5995 4.2022 7.7978 4.4005 7.904 4.539 L7.3969 5.0666 C7.4994 5.2201 7.6117 5.4912 7.6477 5.6722 L8.3795 5.6867 Z" clip-path="url(#clipPath2)"/></g><g fill="gray" text-rendering="optimizeLegibility" transform="matrix(1,0,0,1,10,10)" stroke="gray"><path d="M14.9487 8.2168 C15.0056 8.6494 15.0056 9.3506 14.9487 9.7832 L13.1193 9.8194 C13.0293 10.2719 12.7485 10.9498 12.4922 11.3334 L13.7601 12.6526 C13.4945 12.9987 12.9987 13.4945 12.6526 13.7601 L11.3334 12.4922 C10.9498 12.7485 10.2719 13.0293 9.8194 13.1193 L9.7832 14.9487 C9.3506 15.0056 8.6494 15.0056 8.2168 14.9487 L8.1806 13.1193 C7.7281 13.0293 7.0502 12.7485 6.6666 12.4922 L5.3474 13.7601 C5.0013 13.4945 4.5055 12.9987 4.2399 12.6526 L5.5078 11.3334 C5.2515 10.9498 4.9707 10.2719 4.8807 9.8194 L3.0513 9.7832 C2.9944 9.3506 2.9944 8.6494 3.0513 8.2168 L4.8807 8.1806 C4.9707 7.7281 5.2515 7.0502 5.5078 6.6666 L4.2399 5.3474 C4.5055 5.0013 5.0013 4.5055 5.3474 4.2399 L6.6666 5.5078 C7.0502 5.2515 7.7281 4.9707 8.1806 4.8807 L8.2168 3.0513 C8.6494 2.9944 9.3506 2.9944 9.7832 3.0513 L9.8194 4.8807 C10.2719 4.9707 10.9498 5.2515 11.3334 5.5078 L12.6526 4.2399 C12.9987 4.5055 13.4945 5.0013 13.7601 5.3474 L12.4922 6.6666 C12.7485 7.0502 13.0293 7.7281 13.1193 8.1806 L14.9487 8.2168 Z" stroke="none" clip-path="url(#clipPath2)"/></g><g text-rendering="optimizeLegibility" stroke-width="0.3" transform="matrix(1,0,0,1,10,10)" stroke-linecap="butt"><path fill="none" d="M14.9487 8.2168 C15.0056 8.6494 15.0056 9.3506 14.9487 9.7832 L13.1193 9.8194 C13.0293 10.2719 12.7485 10.9498 12.4922 11.3334 L13.7601 12.6526 C13.4945 12.9987 12.9987 13.4945 12.6526 13.7601 L11.3334 12.4922 C10.9498 12.7485 10.2719 13.0293 9.8194 13.1193 L9.7832 14.9487 C9.3506 15.0056 8.6494 15.0056 8.2168 14.9487 L8.1806 13.1193 C7.7281 13.0293 7.0502 12.7485 6.6666 12.4922 L5.3474 13.7601 C5.0013 13.4945 4.5055 12.9987 4.2399 12.6526 L5.5078 11.3334 C5.2515 10.9498 4.9707 10.2719 4.8807 9.8194 L3.0513 9.7832 C2.9944 9.3506 2.9944 8.6494 3.0513 8.2168 L4.8807 8.1806 C4.9707 7.7281 5.2515 7.0502 5.5078 6.6666 L4.2399 5.3474 C4.5055 5.0013 5.0013 4.5055 5.3474 4.2399 L6.6666 5.5078 C7.0502 5.2515 7.7281 4.9707 8.1806 4.8807 L8.2168 3.0513 C8.6494 2.9944 9.3506 2.9944 9.7832 3.0513 L9.8194 4.8807 C10.2719 4.9707 10.9498 5.2515 11.3334 5.5078 L12.6526 4.2399 C12.9987 4.5055 13.4945 5.0013 13.7601 5.3474 L12.4922 6.6666 C12.7485 7.0502 13.0293 7.7281 13.1193 8.1806 L14.9487 8.2168 Z" clip-path="url(#clipPath2)"/></g><g fill="silver" text-rendering="optimizeLegibility" transform="matrix(1,0,0,1,10,10)" stroke="silver"><path d="M11.3795 8.6867 C11.4022 8.8597 11.4022 9.1403 11.3795 9.3133 L10.6477 9.3278 C10.6117 9.5088 10.4994 9.7799 10.3969 9.9334 L10.904 10.461 C10.7978 10.5995 10.5995 10.7978 10.461 10.904 L9.9334 10.3969 C9.7799 10.4994 9.5088 10.6117 9.3278 10.6477 L9.3133 11.3795 C9.1403 11.4022 8.8597 11.4022 8.6867 11.3795 L8.6722 10.6477 C8.4912 10.6117 8.2201 10.4994 8.0666 10.3969 L7.539 10.904 C7.4005 10.7978 7.2022 10.5995 7.096 10.461 L7.6031 9.9334 C7.5006 9.7799 7.3883 9.5088 7.3523 9.3278 L6.6205 9.3133 C6.5978 9.1403 6.5978 8.8597 6.6205 8.6867 L7.3523 8.6722 C7.3883 8.4912 7.5006 8.2201 7.6031 8.0666 L7.096 7.539 C7.2022 7.4005 7.4005 7.2022 7.539 7.096 L8.0666 7.6031 C8.2201 7.5006 8.4912 7.3883 8.6722 7.3523 L8.6867 6.6205 C8.8597 6.5978 9.1403 6.5978 9.3133 6.6205 L9.3278 7.3523 C9.5088 7.3883 9.7799 7.5006 9.9334 7.6031 L10.461 7.096 C10.5995 7.2022 10.7978 7.4005 10.904 7.539 L10.3969 8.0666 C10.4994 8.2201 10.6117 8.4912 10.6477 8.6722 L11.3795 8.6867 Z" stroke="none" clip-path="url(#clipPath2)"/></g><g text-rendering="optimizeLegibility" stroke-width="0.3" transform="matrix(1,0,0,1,10,10)" stroke-linecap="butt"><path fill="none" d="M11.3795 8.6867 C11.4022 8.8597 11.4022 9.1403 11.3795 9.3133 L10.6477 9.3278 C10.6117 9.5088 10.4994 9.7799 10.3969 9.9334 L10.904 10.461 C10.7978 10.5995 10.5995 10.7978 10.461 10.904 L9.9334 10.3969 C9.7799 10.4994 9.5088 10.6117 9.3278 10.6477 L9.3133 11.3795 C9.1403 11.4022 8.8597 11.4022 8.6867 11.3795 L8.6722 10.6477 C8.4912 10.6117 8.2201 10.4994 8.0666 10.3969 L7.539 10.904 C7.4005 10.7978 7.2022 10.5995 7.096 10.461 L7.6031 9.9334 C7.5006 9.7799 7.3883 9.5088 7.3523 9.3278 L6.6205 9.3133 C6.5978 9.1403 6.5978 8.8597 6.6205 8.6867 L7.3523 8.6722 C7.3883 8.4912 7.5006 8.2201 7.6031 8.0666 L7.096 7.539 C7.2022 7.4005 7.4005 7.2022 7.539 7.096 L8.0666 7.6031 C8.2201 7.5006 8.4912 7.3883 8.6722 7.3523 L8.6867 6.6205 C8.8597 6.5978 9.1403 6.5978 9.3133 6.6205 L9.3278 7.3523 C9.5088 7.3883 9.7799 7.5006 9.9334 7.6031 L10.461 7.096 C10.5995 7.2022 10.7978 7.4005 10.904 7.539 L10.3969 8.0666 C10.4994 8.2201 10.6117 8.4912 10.6477 8.6722 L11.3795 8.6867 Z" clip-path="url(#clipPath2)"/></g></g></svg>