<?xml version="1.0" encoding="UTF-8"?><svg xmlns="http://www.w3.org/2000/svg" xmlns:xlink="http://www.w3.org/1999/xlink" stroke-dasharray="none" shape-rendering="auto" font-family="'Dialog'" text-rendering="auto" width="110.0px" fill-opacity="1" contentScriptType="text/ecmascript" color-rendering="auto" color-interpolation="auto" preserveAspectRatio="xMidYMid meet" font-size="12px" fill="black" stroke="black" image-rendering="auto" stroke-miterlimit="10" zoomAndPan="magnify" version="1.0" stroke-linecap="square" stroke-linejoin="miter" contentStyleType="text/css" font-style="normal" stroke-width="1" height="70.0px" stroke-dashoffset="0" font-weight="normal" stroke-opacity="1"><!--Generated by the Batik Graphics2D SVG Generator--><defs id="genericDefs"/><g><defs id="defs1"><clipPath clipPathUnits="userSpaceOnUse" id="clipPath1"><path d="M-4 -4 L104 -4 L104 64 L-4 64 L-4 -4 Z"/></clipPath><clipPath clipPathUnits="userSpaceOnUse" id="clipPath2"><path d="M-10 -10 L98 -10 L98 58 L-10 58 L-10 -10 Z"/></clipPath></defs><g fill="rgb(255,255,255)" text-rendering="optimizeLegibility" fill-opacity="0" stroke-opacity="0" stroke="rgb(255,255,255)"><rect x="0" width="108" height="68" y="0" stroke="none"/></g><g fill="rgb(250,250,250)" text-rendering="optimizeLegibility" transform="matrix(1,0,0,1,4,4)" stroke="rgb(250,250,250)"><rect x="0" y="0" clip-path="url(#clipPath1)" width="100" rx="6" ry="6" height="60" stroke="none"/><rect stroke-linecap="butt" x="0" y="0" clip-path="url(#clipPath1)" fill="none" width="100" rx="6" ry="6" height="60" stroke="rgb(0,0,204)"/><rect x="2" y="2" clip-path="url(#clipPath1)" width="96" rx="4" ry="4" height="56" stroke="none"/><rect stroke-linecap="butt" x="2" y="2" clip-path="url(#clipPath1)" fill="none" width="96" rx="4" ry="4" height="56" stroke="rgb(0,0,204)"/></g><g fill="gray" text-rendering="optimizeLegibility" transform="matrix(1,0,0,1,10,10)" stroke="gray"><path d="M0 1.5 L15 1.5 L15 13.5 L0 13.5 Z" stroke="none" clip-path="url(#clipPath2)"/><path fill="none" d="M0 1.5 L15 1.5 L15 13.5 L0 13.5 Z" clip-path="url(#clipPath2)" stroke-linecap="butt" stroke="black"/></g><g fill="silver" text-rendering="optimizeLegibility" transform="matrix(1,0,0,1,10,10)" stroke="silver"><path d="M0 4.38 L15 4.38 L15 13.5 L0 13.5 Z" stroke="none" clip-path="url(#clipPath2)"/><path fill="none" d="M0 4.38 L15 4.38 L15 13.5 L0 13.5 Z" clip-path="url(#clipPath2)" stroke-linecap="butt" stroke="black"/></g><g stroke-linecap="butt" text-rendering="optimizeLegibility" transform="matrix(1,0,0,1,10,10)"><path fill="none" d="M0 8.94 L15 8.94 M3.96 4.38 L3.96 13.5" clip-path="url(#clipPath2)"/></g></g></svg>