<?xml version="1.0" encoding="UTF-8"?><svg xmlns="http://www.w3.org/2000/svg" xmlns:xlink="http://www.w3.org/1999/xlink" stroke-dasharray="none" shape-rendering="auto" font-family="'Dialog'" text-rendering="auto" width="110.0px" fill-opacity="1" contentScriptType="text/ecmascript" color-rendering="auto" color-interpolation="auto" preserveAspectRatio="xMidYMid meet" font-size="12px" fill="black" stroke="black" image-rendering="auto" stroke-miterlimit="10" zoomAndPan="magnify" version="1.0" stroke-linecap="square" stroke-linejoin="miter" contentStyleType="text/css" font-style="normal" stroke-width="1" height="70.0px" stroke-dashoffset="0" font-weight="normal" stroke-opacity="1"><!--Generated by the Batik Graphics2D SVG Generator--><defs id="genericDefs"/><g><defs id="defs1"><clipPath clipPathUnits="userSpaceOnUse" id="clipPath1"><path d="M-4 -4 L104 -4 L104 64 L-4 64 L-4 -4 Z"/></clipPath><clipPath clipPathUnits="userSpaceOnUse" id="clipPath2"><path d="M-10 -10 L98 -10 L98 58 L-10 58 L-10 -10 Z"/></clipPath><clipPath clipPathUnits="userSpaceOnUse" id="clipPath3"><path d="M-14.26 -15.1857 L93.74 -15.1857 L93.74 52.8143 L-14.26 52.8143 L-14.26 -15.1857 Z"/></clipPath></defs><g fill="rgb(255,255,255)" text-rendering="optimizeLegibility" fill-opacity="0" stroke-opacity="0" stroke="rgb(255,255,255)"><rect x="0" width="108" height="68" y="0" stroke="none"/></g><g fill="rgb(250,250,250)" text-rendering="optimizeLegibility" transform="matrix(1,0,0,1,4,4)" stroke="rgb(250,250,250)"><rect x="0" y="0" clip-path="url(#clipPath1)" width="100" rx="6" ry="6" height="60" stroke="none"/></g><g fill="rgb(0,0,139)" text-rendering="optimizeLegibility" stroke-width="3" transform="matrix(1,0,0,1,4,4)" stroke-linecap="butt" stroke="rgb(0,0,139)"><rect x="0" y="0" clip-path="url(#clipPath1)" fill="none" width="100" rx="6" ry="6" height="60"/></g><g fill="rgb(250,250,250)" text-rendering="optimizeLegibility" transform="matrix(1,0,0,1,10,10)" stroke="rgb(250,250,250)"><path d="M7.5 15 C3.3585 15 0 11.6415 0 7.5 C0 3.3585 3.3585 0 7.5 0 C11.6415 0 15 3.3585 15 7.5 C15 11.6415 11.6415 15 7.5 15 Z" stroke="none" clip-path="url(#clipPath2)"/><path fill="none" d="M7.5 15 C3.3585 15 0 11.6415 0 7.5 C0 3.3585 3.3585 0 7.5 0 C11.6415 0 15 3.3585 15 7.5 C15 11.6415 11.6415 15 7.5 15 Z" clip-path="url(#clipPath2)" stroke-linecap="butt" stroke="green"/></g><g fill="white" text-rendering="optimizeLegibility" transform="matrix(1,0,0,1,14.26,15.1857)" stroke="white"><path d="M0 0 L6.48 0 L6.48 4.6286 L0 4.6286 Z" stroke="none" clip-path="url(#clipPath3)"/><path fill="none" d="M0 0 L6.48 0 L6.48 4.6286 L0 4.6286 Z" clip-path="url(#clipPath3)" stroke-linecap="butt" stroke="black"/></g><g stroke-linecap="butt" text-rendering="optimizeLegibility" transform="matrix(1,0,0,1,14.26,15.1857)"><path fill="none" d="M0 0 L3.24 2.3143 L6.48 0" clip-path="url(#clipPath3)"/></g></g></svg>