<?xml version="1.0" encoding="UTF-8"?><svg xmlns="http://www.w3.org/2000/svg" xmlns:xlink="http://www.w3.org/1999/xlink" stroke-dasharray="none" shape-rendering="auto" font-family="'Dialog'" text-rendering="auto" width="70.0px" fill-opacity="1" contentScriptType="text/ecmascript" color-rendering="auto" color-interpolation="auto" preserveAspectRatio="xMidYMid meet" font-size="12px" fill="black" stroke="black" image-rendering="auto" stroke-miterlimit="10" zoomAndPan="magnify" version="1.0" stroke-linecap="square" stroke-linejoin="miter" contentStyleType="text/css" font-style="normal" stroke-width="1" height="90.0px" stroke-dashoffset="0" font-weight="normal" stroke-opacity="1"><!--Generated by the Batik Graphics2D SVG Generator--><defs id="genericDefs"/><g><defs id="defs1"><clipPath clipPathUnits="userSpaceOnUse" id="clipPath1"><path d="M-4 -4 L64 -4 L64 84 L-4 84 L-4 -4 Z"/></clipPath><clipPath clipPathUnits="userSpaceOnUse" id="clipPath2"><path d="M-6 -6 L62 -6 L62 82 L-6 82 L-6 -6 Z"/></clipPath></defs><g fill="rgb(255,255,255)" text-rendering="optimizeLegibility" fill-opacity="0" stroke-opacity="0" stroke="rgb(255,255,255)"><rect x="0" width="68" height="88" y="0" stroke="none"/></g><g fill="white" text-rendering="optimizeLegibility" transform="matrix(1,0,0,1,4,4)" stroke="white"><path d="M0 0 L36 0 L60 24 L60 80 L0 80 Z" stroke="none" clip-path="url(#clipPath1)"/><path fill="none" d="M0 0 L36 0 L60 24 L60 80 L0 80 Z" clip-path="url(#clipPath1)" stroke-linecap="butt" stroke="black"/><path d="M36 0 L36 24 L60 24" clip-path="url(#clipPath1)" stroke="none"/><path fill="none" d="M36 0 L36 24 L60 24" clip-path="url(#clipPath1)" stroke-linecap="butt" stroke="black"/></g><g fill="rgb(255,255,255)" text-rendering="optimizeLegibility" fill-opacity="0" transform="matrix(1,0,0,1,6,6)" stroke-opacity="0" stroke="rgb(255,255,255)"><path d="M1 3.04 L5 3.04 L5 0.8 L9 4 L5 7.2 L5 4.96 L1 4.96 Z" stroke="none" clip-path="url(#clipPath2)"/></g><g text-rendering="optimizeLegibility" stroke-miterlimit="3" transform="matrix(1,0,0,1,6,6)" stroke-linecap="butt"><path fill="none" d="M1 3.04 L5 3.04 L5 0.8 L9 4 L5 7.2 L5 4.96 L1 4.96 Z" clip-path="url(#clipPath2)"/></g></g></svg>