<?xml version="1.0" encoding="UTF-8"?><svg xmlns="http://www.w3.org/2000/svg" xmlns:xlink="http://www.w3.org/1999/xlink" stroke-dasharray="none" shape-rendering="auto" font-family="'Dialog'" text-rendering="auto" width="70.0px" fill-opacity="1" contentScriptType="text/ecmascript" color-rendering="auto" color-interpolation="auto" preserveAspectRatio="xMidYMid meet" font-size="12px" fill="black" stroke="black" image-rendering="auto" stroke-miterlimit="10" zoomAndPan="magnify" version="1.0" stroke-linecap="square" stroke-linejoin="miter" contentStyleType="text/css" font-style="normal" stroke-width="1" height="70.0px" stroke-dashoffset="0" font-weight="normal" stroke-opacity="1"><!--Generated by the Batik Graphics2D SVG Generator--><defs id="genericDefs"/><g><defs id="defs1"><clipPath clipPathUnits="userSpaceOnUse" id="clipPath1"><path d="M-4 -4 L64 -4 L64 64 L-4 64 L-4 -4 Z"/></clipPath></defs><g fill="rgb(255,255,255)" text-rendering="optimizeLegibility" fill-opacity="0" stroke-opacity="0" stroke="rgb(255,255,255)"><rect x="0" width="68" height="68" y="0" stroke="none"/></g><g fill="white" text-rendering="optimizeLegibility" transform="matrix(1,0,0,1,4,4)" stroke="white"><path d="M0 7.5 L0 52.5 C0 60 60 60 60 52.5 L60 7.5 C60 0 0 0 0 7.5 Z" stroke="none" clip-path="url(#clipPath1)"/><path fill="none" d="M0 7.5 L0 52.5 C0 60 60 60 60 52.5 L60 7.5 C60 0 0 0 0 7.5 Z" clip-path="url(#clipPath1)" stroke-linecap="butt" stroke="black"/></g><g stroke-linecap="butt" text-rendering="optimizeLegibility" transform="matrix(1,0,0,1,4,4)"><path fill="none" d="M0 7.5 C0 15 60 15 60 7.5 M0 11.7 C0 19.2 60 19.2 60 11.7 M0 15.9 C0 23.4 60 23.4 60 15.9" clip-path="url(#clipPath1)"/></g></g></svg>