<?xml version="1.0" encoding="UTF-8"?><svg xmlns="http://www.w3.org/2000/svg" xmlns:xlink="http://www.w3.org/1999/xlink" stroke-dasharray="none" shape-rendering="auto" font-family="'Dialog'" text-rendering="auto" width="70.0px" fill-opacity="1" contentScriptType="text/ecmascript" color-rendering="auto" color-interpolation="auto" preserveAspectRatio="xMidYMid meet" font-size="12px" fill="black" stroke="black" image-rendering="auto" stroke-miterlimit="10" zoomAndPan="magnify" version="1.0" stroke-linecap="square" stroke-linejoin="miter" contentStyleType="text/css" font-style="normal" stroke-width="1" height="70.0px" stroke-dashoffset="0" font-weight="normal" stroke-opacity="1"><!--Generated by the Batik Graphics2D SVG Generator--><defs id="genericDefs"/><g><defs id="defs1"><clipPath clipPathUnits="userSpaceOnUse" id="clipPath1"><path d="M-4 -4 L64 -4 L64 64 L-4 64 L-4 -4 Z"/></clipPath><clipPath clipPathUnits="userSpaceOnUse" id="clipPath2"><path d="M-14.56 -20.1143 L53.44 -20.1143 L53.44 47.8857 L-14.56 47.8857 L-14.56 -20.1143 Z"/></clipPath></defs><g fill="rgb(255,255,255)" text-rendering="optimizeLegibility" fill-opacity="0" stroke-opacity="0" stroke="rgb(255,255,255)"><rect x="0" width="68" height="68" y="0" stroke="none"/></g><g fill="rgb(250,250,250)" text-rendering="optimizeLegibility" transform="matrix(1,0,0,1,4,4)" stroke="rgb(250,250,250)"><path d="M30 60 C13.434 60 0 46.566 0 30 C0 13.434 13.434 0 30 0 C46.566 0 60 13.434 60 30 C60 46.566 46.566 60 30 60 Z" stroke="none" clip-path="url(#clipPath1)"/></g><g fill="green" text-rendering="optimizeLegibility" stroke-dasharray="2,2" stroke-dashoffset="1" transform="matrix(1,0,0,1,4,4)" stroke="green"><path fill="none" d="M30 60 C13.434 60 0 46.566 0 30 C0 13.434 13.434 0 30 0 C46.566 0 60 13.434 60 30 C60 46.566 46.566 60 30 60 Z" clip-path="url(#clipPath1)"/></g><g fill="white" text-rendering="optimizeLegibility" transform="matrix(1,0,0,1,14.56,20.1143)" stroke="white"><path d="M0 0 L38.88 0 L38.88 27.7714 L0 27.7714 Z" stroke="none" clip-path="url(#clipPath2)"/><path fill="none" d="M0 0 L38.88 0 L38.88 27.7714 L0 27.7714 Z" clip-path="url(#clipPath2)" stroke-linecap="butt" stroke="black"/></g><g stroke-linecap="butt" text-rendering="optimizeLegibility" transform="matrix(1,0,0,1,14.56,20.1143)"><path fill="none" d="M0 0 L19.44 13.8857 L38.88 0" clip-path="url(#clipPath2)"/></g></g></svg>