<?xml version="1.0" encoding="UTF-8"?><svg xmlns="http://www.w3.org/2000/svg" xmlns:xlink="http://www.w3.org/1999/xlink" stroke-dasharray="none" shape-rendering="auto" font-family="'Dialog'" text-rendering="auto" width="70.0px" fill-opacity="1" contentScriptType="text/ecmascript" color-rendering="auto" color-interpolation="auto" preserveAspectRatio="xMidYMid meet" font-size="12px" fill="black" stroke="black" image-rendering="auto" stroke-miterlimit="10" zoomAndPan="magnify" version="1.0" stroke-linecap="square" stroke-linejoin="miter" contentStyleType="text/css" font-style="normal" stroke-width="1" height="70.0px" stroke-dashoffset="0" font-weight="normal" stroke-opacity="1"><!--Generated by the Batik Graphics2D SVG Generator--><defs id="genericDefs"/><g><defs id="defs1"><clipPath clipPathUnits="userSpaceOnUse" id="clipPath1"><path d="M-4 -4 L64 -4 L64 64 L-4 64 L-4 -4 Z"/></clipPath><clipPath clipPathUnits="userSpaceOnUse" id="clipPath2"><path d="M-9.7 -9.7 L58.3 -9.7 L58.3 58.3 L-9.7 58.3 L-9.7 -9.7 Z"/></clipPath></defs><g fill="rgb(255,255,255)" text-rendering="optimizeLegibility" fill-opacity="0" stroke-opacity="0" stroke="rgb(255,255,255)"><rect x="0" width="68" height="68" y="0" stroke="none"/></g><g fill="rgb(250,250,250)" text-rendering="optimizeLegibility" transform="matrix(1,0,0,1,4,4)" stroke="rgb(250,250,250)"><path d="M30 60 C13.434 60 0 46.566 0 30 C0 13.434 13.434 0 30 0 C46.566 0 60 13.434 60 30 C60 46.566 46.566 60 30 60 Z" stroke="none" clip-path="url(#clipPath1)"/></g><g fill="red" text-rendering="optimizeLegibility" stroke-width="3" transform="matrix(1,0,0,1,4,4)" stroke-linecap="butt" stroke="red"><path fill="none" d="M30 60 C13.434 60 0 46.566 0 30 C0 13.434 13.434 0 30 0 C46.566 0 60 13.434 60 30 C60 46.566 46.566 60 30 60 Z" clip-path="url(#clipPath1)"/></g><g text-rendering="optimizeLegibility" transform="matrix(1,0,0,1,9.7,9.7)"><path d="M0 24.3 L21.0444 10.2704 L21.0444 24.3 L42.0888 10.2704 L42.0888 38.3296 L21.0444 24.3 L21.0444 38.3296 Z" stroke="none" clip-path="url(#clipPath2)"/><path fill="none" stroke-miterlimit="3" d="M0 24.3 L21.0444 10.2704 L21.0444 24.3 L42.0888 10.2704 L42.0888 38.3296 L21.0444 24.3 L21.0444 38.3296 Z" clip-path="url(#clipPath2)" stroke-linecap="butt"/></g></g></svg>