<?xml version="1.0" encoding="UTF-8"?><svg xmlns="http://www.w3.org/2000/svg" xmlns:xlink="http://www.w3.org/1999/xlink" stroke-dasharray="none" shape-rendering="auto" font-family="'Dialog'" text-rendering="auto" width="70.0px" fill-opacity="1" contentScriptType="text/ecmascript" color-rendering="auto" color-interpolation="auto" preserveAspectRatio="xMidYMid meet" font-size="12px" fill="black" stroke="black" image-rendering="auto" stroke-miterlimit="10" zoomAndPan="magnify" version="1.0" stroke-linecap="square" stroke-linejoin="miter" contentStyleType="text/css" font-style="normal" stroke-width="1" height="70.0px" stroke-dashoffset="0" font-weight="normal" stroke-opacity="1"><!--Generated by the Batik Graphics2D SVG Generator--><defs id="genericDefs"/><g><defs id="defs1"><clipPath clipPathUnits="userSpaceOnUse" id="clipPath1"><path d="M-4 -4 L64 -4 L64 64 L-4 64 L-4 -4 Z"/></clipPath><clipPath clipPathUnits="userSpaceOnUse" id="clipPath2"><path d="M-16 -16 L52 -16 L52 52 L-16 52 L-16 -16 Z"/></clipPath></defs><g fill="rgb(255,255,255)" text-rendering="optimizeLegibility" fill-opacity="0" stroke-opacity="0" stroke="rgb(255,255,255)"><rect x="0" width="68" height="68" y="0" stroke="none"/></g><g fill="rgb(250,250,250)" text-rendering="optimizeLegibility" transform="matrix(1,0,0,1,4,4)" stroke="rgb(250,250,250)"><path d="M30 0 L60 30 L30 60 L0 30 Z" stroke="none" clip-path="url(#clipPath1)"/><path fill="none" d="M30 0 L60 30 L30 60 L0 30 Z" clip-path="url(#clipPath1)" stroke-linecap="butt" stroke="rgb(255,140,0)"/></g><g stroke-linecap="butt" text-rendering="optimizeLegibility" transform="matrix(1,0,0,1,16,16)"><path fill="none" d="M18 36 C8.0604 36 0 27.9396 0 18 C0 8.0604 8.0604 0 18 0 C27.9396 0 36 8.0604 36 18 C36 27.9396 27.9396 36 18 36 Z" clip-path="url(#clipPath2)"/></g><g stroke-linecap="butt" text-rendering="optimizeLegibility" transform="matrix(1,0,0,1,16,16)"><path fill="none" d="M7.4182 15.84 L15.84 15.84 L15.84 7.4182 L20.16 7.4182 L20.16 15.84 L28.5818 15.84 L28.5818 20.16 L20.16 20.16 L20.16 28.5818 L15.84 28.5818 L15.84 20.16 L7.4182 20.16 Z" clip-path="url(#clipPath2)"/></g></g></svg>