<?xml version="1.0" encoding="UTF-8"?><svg xmlns="http://www.w3.org/2000/svg" xmlns:xlink="http://www.w3.org/1999/xlink" stroke-dasharray="none" shape-rendering="auto" font-family="'Dialog'" text-rendering="auto" width="70.0px" fill-opacity="1" contentScriptType="text/ecmascript" color-rendering="auto" color-interpolation="auto" preserveAspectRatio="xMidYMid meet" font-size="12px" fill="black" stroke="black" image-rendering="auto" stroke-miterlimit="10" zoomAndPan="magnify" version="1.0" stroke-linecap="square" stroke-linejoin="miter" contentStyleType="text/css" font-style="normal" stroke-width="1" height="70.0px" stroke-dashoffset="0" font-weight="normal" stroke-opacity="1"><!--Generated by the Batik Graphics2D SVG Generator--><defs id="genericDefs"/><g><defs id="defs1"><clipPath clipPathUnits="userSpaceOnUse" id="clipPath1"><path d="M-4 -4 L64 -4 L64 64 L-4 64 L-4 -4 Z"/></clipPath><clipPath clipPathUnits="userSpaceOnUse" id="clipPath2"><path d="M-16 -16 L52 -16 L52 52 L-16 52 L-16 -16 Z"/></clipPath></defs><g fill="rgb(255,255,255)" text-rendering="optimizeLegibility" fill-opacity="0" stroke-opacity="0" stroke="rgb(255,255,255)"><rect x="0" width="68" height="68" y="0" stroke="none"/></g><g fill="rgb(250,250,250)" text-rendering="optimizeLegibility" transform="matrix(1,0,0,1,4,4)" stroke="rgb(250,250,250)"><path d="M30 0 L60 30 L30 60 L0 30 Z" stroke="none" clip-path="url(#clipPath1)"/><path fill="none" d="M30 0 L60 30 L30 60 L0 30 Z" clip-path="url(#clipPath1)" stroke-linecap="butt" stroke="rgb(255,140,0)"/></g><g text-rendering="optimizeLegibility" transform="matrix(1,0,0,1,16,16)"><path d="M8.8721 5.2721 L13.1921 5.2721 L18 14.0544 L22.8079 5.2721 L27.1279 5.2721 L20.16 18 L27.1279 30.7279 L22.8079 30.7279 L18 21.9456 L13.1921 30.7279 L8.8721 30.7279 L15.84 18 Z" stroke="none" clip-path="url(#clipPath2)"/><path fill="none" d="M8.8721 5.2721 L13.1921 5.2721 L18 14.0544 L22.8079 5.2721 L27.1279 5.2721 L20.16 18 L27.1279 30.7279 L22.8079 30.7279 L18 21.9456 L13.1921 30.7279 L8.8721 30.7279 L15.84 18 Z" clip-path="url(#clipPath2)" stroke-linecap="butt"/></g></g></svg>